<?xml version="1.0" encoding="UTF-8"?><svg id="Layer_2" xmlns="http://www.w3.org/2000/svg" xmlns:xlink="http://www.w3.org/1999/xlink" viewBox="0 0 351.3 159.84"><defs><style>.cls-1{fill:url(#linear-gradient-2);}.cls-2{fill:#23316a;}.cls-3{clip-path:url(#clippath);}.cls-4{fill:none;}.cls-5{fill:url(#linear-gradient);}</style><clipPath id="clippath"><path class="cls-4" d="M240.71,23.32v10.55h-24.73v-9.29h-64.27v19.85h65.69c12.76,0,23.32,10.4,23.32,23.32v22.37c0,12.92-10.55,23.32-23.32,23.32h-66.79c-12.92,0-23.32-10.4-23.32-23.32v-10.55h24.42v9.29h64.27v-19.85h-65.38c-12.92,0-23.32-10.4-23.32-23.32v-3.53l10.91-18.85L151.71,0h65.69c12.76,0,23.32,10.4,23.32,23.32ZM150.6,0h-27.1l-47.57,82.39L28.36,0H0L65.69,113.42h20.32L127.29,42.16V23.32c0-12.92,10.4-23.32,23.32-23.32Zm200.7,24.58V0h-104.76V113.42h104.76v-24.58h-80.03v-19.85h64.43v-24.58h-64.43V24.58h80.03Z"/></clipPath><linearGradient id="linear-gradient" x1="-2.34" y1="52.11" x2="353.64" y2="52.11" gradientUnits="userSpaceOnUse"><stop offset=".14" stop-color="#201f27"/><stop offset=".52" stop-color="#5aaeb0"/><stop offset=".9" stop-color="#23316a"/></linearGradient><linearGradient id="linear-gradient-2" x1="-2.34" y1="52.11" x2="353.64" y2="52.11" gradientUnits="userSpaceOnUse"><stop offset=".14" stop-color="#5c5b5f"/><stop offset=".52" stop-color="#78cdd1"/><stop offset=".9" stop-color="#1955a6"/></linearGradient></defs><g id="Layer_1-2"><g><path class="cls-2" d="M128.3,159.45h-6.18l-5.14-13.14h-18.74l-5.07,13.14h-6.18l17.76-45.41h5.79l17.76,45.41Zm-13.4-18.61l-7.29-18.47-7.22,18.47h14.51Z"/><path class="cls-2" d="M154.45,125.23l-11.25,34.22h-4.81l-11.19-34.22h5.92l7.68,23.55,7.74-23.55h5.92Z"/><path class="cls-2" d="M165.42,159.45h-5.72v-34.22h5.72v34.22Z"/><path class="cls-2" d="M202.03,159.45h-5.98l-3.71-9.43h-12.49l-3.71,9.43h-6.05l13.4-34.22h5.14l13.4,34.22Zm-11.84-14.9l-4.1-10.54-4.16,10.54h8.26Z"/><path class="cls-2" d="M225.5,130.76h-10.02v28.69h-5.59v-28.69h-10.02v-5.53h25.63v5.53Z"/><path class="cls-2" d="M236.47,159.45h-5.72v-34.22h5.72v34.22Z"/><path class="cls-2" d="M270.97,142.34c0,4.99-1.04,9.02-3.12,12.1-2.43,3.6-6.05,5.4-10.86,5.4s-8.5-1.8-10.93-5.4c-2.08-3.08-3.12-7.11-3.12-12.1s1.04-9.02,3.12-12.1c2.43-3.6,6.07-5.4,10.93-5.4s8.43,1.8,10.86,5.4c2.08,3.08,3.12,7.11,3.12,12.1Zm-5.59,0c0-7.98-2.8-11.97-8.39-11.97s-8.39,3.99-8.39,11.97,2.8,11.97,8.39,11.97,8.39-3.99,8.39-11.97Z"/><path class="cls-2" d="M301.79,159.45h-5.07l-13.86-22.64v22.64h-5.59v-34.22h5.07l13.79,22.64v-22.64h5.66v34.22Z"/></g><g class="cls-3"><rect class="cls-5" x="-2.34" y="-14.64" width="355.98" height="133.49"/><path class="cls-1" d="M3.15-14.64V118.86H-2.34V-14.64H3.15Zm2.35,0V118.86h5.49V-14.64H5.5Zm8.04,0V118.86h1.18V-14.64h-1.18Zm7.84,0V118.86h1.18V-14.64h-1.18Zm3.72,0V118.86h1.18V-14.64h-1.18Zm5.29,133.49h5.49V-14.64h-5.49V118.86Zm7.84,0h1.37V-14.64h-1.37V118.86Zm3.72,0h5.49V-14.64h-5.49V118.86Zm7.84,0h1.37V-14.64h-1.37V118.86Zm8.04,0h1.18V-14.64h-1.18V118.86ZM63.13-14.64V118.86h5.49V-14.64h-5.49Zm7.84,0V118.86h1.37V-14.64h-1.37Zm3.72,0V118.86h1.18V-14.64h-1.18Zm3.72,0V118.86h5.49V-14.64h-5.49Zm12.15,0V118.86h1.18V-14.64h-1.18Zm5.29,133.49h1.18V-14.64h-1.18V118.86Zm3.72,0h5.49V-14.64h-5.49V118.86Zm7.84,0h5.49V-14.64h-5.49V118.86Zm7.84,0h1.37V-14.64h-1.37V118.86Zm8.04,0h1.18V-14.64h-1.18V118.86Zm5.29,0h5.49V-14.64h-5.49V118.86Zm7.84,0h1.37V-14.64h-1.37V118.86Zm3.72,0h5.49V-14.64h-5.49V118.86Zm7.84,0h1.37V-14.64h-1.37V118.86Zm8.04,0h1.18V-14.64h-1.18V118.86Zm5.29-133.49V118.86h5.49V-14.64h-5.49Zm7.84,0V118.86h1.37V-14.64h-1.37Zm3.72,0V118.86h1.18V-14.64h-1.18Zm3.72,0V118.86h5.49V-14.64h-5.49Zm12.15,0V118.86h1.18V-14.64h-1.18Zm5.29,0V118.86h5.49V-14.64h-5.49Zm7.84,0V118.86h1.37V-14.64h-1.37Zm3.72,0V118.86h1.18V-14.64h-1.18Zm7.84,0V118.86h1.37V-14.64h-1.37Zm3.72,0V118.86h5.49V-14.64h-5.49Zm9.6,133.49h1.18V-14.64h-1.18V118.86Zm3.72,0h1.18V-14.64h-1.18V118.86Zm4.12,0h5.49V-14.64h-5.49V118.86Zm7.45,0h5.49V-14.64h-5.49V118.86Zm12.15,0h1.18V-14.64h-1.18V118.86Zm5.29,0h1.18V-14.64h-1.18V118.86Zm3.72,0h5.49V-14.64h-5.49V118.86Zm7.84,0h1.18V-14.64h-1.18V118.86Zm7.84,0h5.49V-14.64h-5.49V118.86Zm8.04,0h1.18V-14.64h-1.18V118.86Zm5.29,0h5.49V-14.64h-5.49V118.86Zm7.84,0h1.37V-14.64h-1.37V118.86Zm3.72,0h5.49V-14.64h-5.49V118.86Zm7.84,0h1.37V-14.64h-1.37V118.86Zm8.04,0h1.18V-14.64h-1.18V118.86Zm5.29-133.49V118.86h1.18V-14.64h-1.18Zm3.72,0V118.86h1.18V-14.64h-1.18Zm4.12,0V118.86h5.49V-14.64h-5.49Zm8.04,0V118.86h1.18V-14.64h-1.18Zm7.25,0V118.86h5.49V-14.64h-5.49Z"/></g></g></svg>