<?xml version="1.0" encoding="UTF-8"?><svg id="Layer_2" xmlns="http://www.w3.org/2000/svg" viewBox="0 0 485.15 124.84"><defs><style>.cls-1{opacity:.43;}.cls-2,.cls-3{opacity:.5;}.cls-3,.cls-4,.cls-5,.cls-6{isolation:isolate;}.cls-3,.cls-4,.cls-5,.cls-6,.cls-7{fill:#848689;}.cls-4{opacity:.8;}.cls-5,.cls-8{opacity:.3;}.cls-6{opacity:.2;}.cls-9{opacity:.38;}</style></defs><g id="Layer_1-2"><g id="Layer_1-3"><g><polygon class="cls-7" points="173.33 66.94 173.73 72.14 183.83 72.14 182.13 57.94 169.03 57.94 160.63 72.14 170.43 72.14 173.33 66.94"/><polygon class="cls-7" points="208.83 57.94 197.03 57.94 194.53 72.14 206.33 72.14 208.83 57.94"/><polygon class="cls-7" points="56.83 57.94 45.03 57.94 42.53 72.14 54.23 72.14 56.83 57.94"/><path class="cls-7" d="M86.23,68.74c.4-2.3,1.8-3.4,4-3.4h8.3c2.3,0,3.2,1.1,2.8,3.4l-.6,3.4h10.3l.6-3.4c.7-4,.3-6.9-1.2-8.7s-4.2-2.7-8.2-2.7h-14.3c-4,0-7.1,.9-9.2,2.7-2.1,1.8-3.6,4.7-4.2,8.7l-.6,3.4h11.7l.6-3.4Z"/><path class="cls-7" d="M127.83,65.94h8.3c2.3,0,3.2,1.1,2.8,3.4l-.2,1.1c-.1,.7-.3,1.2-.6,1.7h9.9c.6-1.1,1.1-2.4,1.4-4,.6-3.5,.2-6.1-1.3-7.7-1.5-1.7-4.1-2.5-7.8-2.5h-22.8l-2.5,14.2h11.7l1.1-6.2h0Z"/><path class="cls-7" d="M15.33,69.34c.4-2.3,1.8-3.4,4-3.4h20.3l1.4-8H17.03c-4,0-7.1,.9-9.2,2.7-2.1,1.8-3.6,4.7-4.3,8.7l-.5,2.8H14.73l.6-2.8h0Z"/></g><g class="cls-2"><path class="cls-7" d="M181.63,58.44l1.6,13.2h-9.1l-.3-4.8-.1-1.7-.8,1.5-2.7,5h-8.7l7.9-13.2h12.2m.5-.5h-13.1l-8.4,14.2h9.9l2.9-5.2,.4,5.2h10.2l-1.9-14.2h0Z"/><path class="cls-7" d="M208.23,58.44l-2.3,13.2h-10.7l2.4-13.2h10.6m.6-.5h-11.7l-2.5,14.2h11.7l2.5-14.2h0Z"/><path class="cls-7" d="M56.23,58.44l-2.3,13.2h-10.8l2.3-13.2h10.8m.6-.5h-11.8l-2.5,14.2h11.7l2.6-14.2h0Z"/><path class="cls-7" d="M102.23,57.84c3.8,0,6.5,.9,7.8,2.5,1.3,1.6,1.8,4.5,1.1,8.3l-.5,3h-9.3l.5-2.8c.2-1.3,.1-2.3-.5-3s-1.5-1-2.8-1h-8.3c-2.5,0-4.1,1.3-4.5,3.8l-.5,3h-10.7l.5-2.8c.6-3.8,2-6.7,4-8.4,2-1.7,5-2.6,8.9-2.6h14.3m0-.5h-14.3c-4,0-7.1,.9-9.2,2.7-2.1,1.8-3.6,4.7-4.2,8.7l-.6,3.4h11.7l.6-3.4c.4-2.3,1.8-3.4,4-3.4h8.3c2.3,0,3.2,1.1,2.8,3.4l-.6,3.4h10.3l.6-3.4c.7-4,.3-6.9-1.2-8.7s-4.2-2.7-8.2-2.7h0Z"/><path class="cls-7" d="M140.43,58.44c3.6,0,6.1,.8,7.4,2.4,1.4,1.6,1.7,4,1.1,7.3-.2,1.3-.6,2.5-1.2,3.5h-8.8c.1-.3,.2-.7,.3-1.1l.2-1.1c.2-1.3,.1-2.3-.5-3s-1.5-1-2.8-1h-8.7l-.1,.4-1,5.8h-10.7l2.3-13.2h22.5m0-.5h-22.8l-2.6,14.2h11.7l1.1-6.2h8.3c2.3,0,3.2,1.1,2.8,3.4l-.2,1.1c-.1,.7-.3,1.2-.6,1.7h9.9c.6-1.1,1.1-2.4,1.4-4,.6-3.5,.2-6.1-1.3-7.7-1.4-1.7-4-2.5-7.7-2.5h0Z"/><path class="cls-7" d="M40.43,58.44l-1.2,7H19.33c-2.5,0-4.1,1.3-4.5,3.8l-.4,2.4H3.63l.4-2.2c.7-3.9,2-6.7,4.1-8.4,2-1.7,5-2.6,8.9-2.6h23.4m.6-.5H17.03c-4,0-7.1,.9-9.2,2.7s-3.6,4.7-4.3,8.7l-.5,2.8H14.73l.5-2.8c.4-2.3,1.8-3.4,4-3.4h20.3l1.5-8h0Z"/></g><g><polygon class="cls-7" points="174.43 83.44 164.23 83.44 169.43 74.04 159.53 74.04 145.03 98.44 156.13 98.44 160.33 90.74 175.33 90.74 175.93 98.44 187.13 98.44 184.13 74.04 173.83 74.04 174.43 83.44"/><polygon class="cls-7" points="189.93 98.44 219.33 98.44 220.93 89.94 203.13 89.94 205.93 74.04 194.23 74.04 189.93 98.44"/><polygon class="cls-7" points="37.83 98.44 67.33 98.44 68.93 89.94 51.13 89.94 53.93 74.04 42.23 74.04 37.83 98.44"/><path class="cls-7" d="M98.13,87.04c-.4,2.3-1.7,3.4-4,3.4h-8.3c-2.3,0-3.2-1.1-2.8-3.4l2.3-13h-11.8l-2.3,13c-.7,4-.3,6.9,1.2,8.7s4.2,2.7,8.2,2.7h14.3c4,0,7.1-.9,9.2-2.7s3.6-4.7,4.2-8.7l2.3-13h-10.3c.1,0-2.2,13-2.2,13Z"/><path class="cls-7" d="M110.43,98.44h24.6c3.7,0,6.6-.9,8.7-2.6s3.4-5.1,4.1-8.8c.3-1.6,.3-2.9,.1-4.1-.5-3.3-2.3-5.3-5.2-6.2,1.4-.5,2.8-1.5,3.9-2.7h-32l-4.2,24.4h0Zm24.6-16.5c2.3,0,3.2,1.1,2.8,3.4l-.2,1.1c-.4,2.3-1.8,3.4-4,3.4h-10l1.4-8,10,.1h0Z"/><path class="cls-7" d="M.33,87.64c-.7,3.7-.3,6.5,1.2,8.2,1.4,1.7,4,2.6,7.7,2.6h24.6l4.4-24.3H20.53l-1.2,6.9h7.4l-1.7,9.5H14.43c-.9,0-1.5-.3-1.9-.8s-.6-1.2-.4-2.1l2.4-13.6H2.73L.33,87.64Z"/></g><g><path class="cls-7" d="M326.43,74.44c-.4,2.3-1.8,3.4-4,3.4h-10l.7-3.9h-11.7l-4.2,24.4h11.7l2.1-12.6h6.6l4.6,12.6h11.1l-5.1-13c2.4-.6,4.2-1.7,5.6-3.5s2.3-4.2,2.9-7.4l.1-.5h-10.3l-.1,.5h0Z"/><polygon class="cls-7" points="347.33 98.44 357.63 98.44 361.93 74.04 351.63 74.04 347.33 98.44"/><polygon class="cls-7" points="281.63 83.44 271.43 83.44 276.63 74.04 266.73 74.04 252.23 98.44 263.43 98.44 267.53 90.74 282.53 90.74 283.13 98.44 294.33 98.44 291.33 74.04 281.03 74.04 281.63 83.44"/><path class="cls-7" d="M377.93,79.74c1.5,1.8,4.2,2.7,8.2,2.7h11.7l-.9,5.1c-.1,.9-.5,1.6-1.1,2.1-.6,.5-1.4,.8-2.2,.8h-19.8l-1.4,8h23.5c3.7,0,6.6-.9,8.7-2.6s3.4-4.5,4.1-8.2l.5-2.9c.7-3.7,.3-6.5-1.2-8.2-1.1-1.4-3.1-2.5-5.6-2.5h-26c-.1,2.5,.4,4.4,1.5,5.7h0Z"/><path class="cls-7" d="M250.93,75.04c-.4,2.3-1.8,3.4-4,3.4h-10l.8-4.5h-11.7l-4.2,24.4h11.7l2-12h12.3c4,0,7.1-.9,9.2-2.7,2.1-1.8,3.5-4.7,4.2-8.7l.2-1h-10.3l-.2,1.1h0Z"/></g><g><polygon class="cls-7" points="174.43 83.44 164.23 83.44 169.43 74.04 159.53 74.04 145.03 98.44 156.13 98.44 160.33 90.74 175.33 90.74 175.93 98.44 187.13 98.44 184.13 74.04 173.83 74.04 174.43 83.44"/><polygon class="cls-7" points="189.93 98.44 219.33 98.44 220.93 89.94 203.13 89.94 205.93 74.04 194.23 74.04 189.93 98.44"/><polygon class="cls-7" points="37.83 98.44 67.33 98.44 68.93 89.94 51.13 89.94 53.93 74.04 42.23 74.04 37.83 98.44"/><path class="cls-7" d="M98.13,87.04c-.4,2.3-1.7,3.4-4,3.4h-8.3c-2.3,0-3.2-1.1-2.8-3.4l2.3-13h-11.8l-2.3,13c-.7,4-.3,6.9,1.2,8.7s4.2,2.7,8.2,2.7h14.3c4,0,7.1-.9,9.2-2.7s3.6-4.7,4.2-8.7l2.3-13h-10.3c.1,0-2.2,13-2.2,13Z"/><path class="cls-7" d="M110.43,98.44h24.6c3.7,0,6.6-.9,8.7-2.6s3.4-5.1,4.1-8.8c.3-1.6,.3-2.9,.1-4.1-.5-3.3-2.3-5.3-5.2-6.2,1.4-.5,2.8-1.5,3.9-2.7h-32l-4.2,24.4h0Zm24.6-16.5c2.3,0,3.2,1.1,2.8,3.4l-.2,1.1c-.4,2.3-1.8,3.4-4,3.4h-10l1.4-8,10,.1h0Z"/><path class="cls-7" d="M.33,87.64c-.7,3.7-.3,6.5,1.2,8.2,1.4,1.7,4,2.6,7.7,2.6h24.6l4.4-24.3H20.53l-1.2,6.9h7.4l-1.7,9.5H14.43c-.9,0-1.5-.3-1.9-.8s-.6-1.2-.4-2.1l2.4-13.6H2.73L.33,87.64Z"/></g><g><path class="cls-7" d="M326.43,74.44c-.4,2.3-1.8,3.4-4,3.4h-10l.7-3.9h-11.7l-4.2,24.4h11.7l2.1-12.6h6.6l4.6,12.6h11.1l-5.1-13c2.4-.6,4.2-1.7,5.6-3.5s2.3-4.2,2.9-7.4l.1-.5h-10.3l-.1,.5h0Z"/><polygon class="cls-7" points="347.33 98.44 357.63 98.44 361.93 74.04 351.63 74.04 347.33 98.44"/><polygon class="cls-7" points="281.63 83.44 271.43 83.44 276.63 74.04 266.73 74.04 252.23 98.44 263.43 98.44 267.53 90.74 282.53 90.74 283.13 98.44 294.33 98.44 291.33 74.04 281.03 74.04 281.63 83.44"/><path class="cls-7" d="M377.93,79.74c1.5,1.8,4.2,2.7,8.2,2.7h11.7l-.9,5.1c-.1,.9-.5,1.6-1.1,2.1-.6,.5-1.4,.8-2.2,.8h-19.8l-1.4,8h23.5c3.7,0,6.6-.9,8.7-2.6s3.4-4.5,4.1-8.2l.5-2.9c.7-3.7,.3-6.5-1.2-8.2-1.1-1.4-3.1-2.5-5.6-2.5h-26c-.1,2.5,.4,4.4,1.5,5.7h0Z"/><path class="cls-7" d="M250.93,75.04c-.4,2.3-1.8,3.4-4,3.4h-10l.8-4.5h-11.7l-4.2,24.4h11.7l2-12h12.3c4,0,7.1-.9,9.2-2.7,2.1-1.8,3.5-4.7,4.2-8.7l.2-1h-10.3l-.2,1.1h0Z"/></g><g class="cls-2"><path class="cls-7" d="M183.63,74.54l2.9,23.4h-10.1l-.6-7.2v-.5h-15.8l-.1,.3-4.1,7.5h-10l13.9-23.4h8.8l-4.8,8.7-.4,.7h11.7v-.5l-.6-8.9h9.2m.5-.6h-10.3l.6,9.5h-10.2l5.2-9.5h-9.9l-14.5,24.4h11.1l4.2-7.7h14.9l.6,7.7h11.1l-2.8-24.4h0Z"/><path class="cls-7" d="M205.33,74.54l-2.7,15.3-.1,.6h17.8l-1.4,7.6h-28.5l4.2-23.4h10.7m.6-.6h-11.7l-4.3,24.4h29.5l1.6-8.6h-17.8l2.7-15.8h0Z"/><path class="cls-7" d="M53.33,74.54l-2.7,15.3-.1,.6h17.8l-1.4,7.6h-28.5l4.2-23.4h10.7m.6-.6h-11.7l-4.3,24.4h29.5l1.6-8.6h-17.9l2.8-15.8h0Z"/><path class="cls-7" d="M110.13,74.54l-2.2,12.4c-.7,3.9-2.1,6.7-4.1,8.4s-5,2.6-8.9,2.6h-14.3c-3.8,0-6.5-.8-7.8-2.5-1.4-1.7-1.7-4.5-1.1-8.3l2.2-12.6h10.7l-2.2,12.4c-.2,1.3-.1,2.3,.5,3s1.5,1,2.8,1h8.3c2.5,0,4.1-1.3,4.5-3.8l2.2-12.6h9.4m.6-.5h-10.3l-2.3,13c-.4,2.3-1.7,3.4-4,3.4h-8.3c-2.3,0-3.2-1.1-2.8-3.4l2.3-13h-11.7l-2.3,13c-.7,4-.3,6.9,1.2,8.7s4.2,2.7,8.2,2.7h14.3c4,0,7.1-.9,9.2-2.7s3.6-4.7,4.2-8.7l2.3-13h0Z"/><path class="cls-7" d="M145.43,74.54c-.9,.8-1.9,1.4-2.9,1.8l-1.4,.5,1.5,.4c2.8,.8,4.3,2.7,4.8,5.8,.2,1.1,.1,2.5-.1,4-.7,3.9-2.1,6.9-3.9,8.5-2,1.7-4.8,2.5-8.4,2.5h-24l4.1-23.4,30.3-.1m-22.4,15.8h10.6c2.5,0,4.1-1.3,4.5-3.8l.2-1.1c.2-1.3,.1-2.3-.5-3s-1.5-1-2.8-1h-10.4l-.1,.4-1.4,8-.1,.5m23.7-16.3h-32l-4.2,24.4h24.5c3.7,0,6.6-.9,8.7-2.6s3.4-5.1,4.1-8.8c.3-1.6,.3-2.9,.1-4.1-.5-3.3-2.3-5.3-5.2-6.2,1.5-.5,2.8-1.4,4-2.7h0Zm-23.1,15.8l1.4-8h10c2.3,0,3.2,1.1,2.8,3.4l-.2,1.1c-.4,2.3-1.8,3.4-4,3.4h-10v.1Z"/><path class="cls-7" d="M13.83,74.54l-2.3,13c-.2,1,0,1.9,.5,2.5s1.3,1,2.3,1h11.1l.1-.4,1.7-9.4,.1-.6h-7.4l1-5.9h16.7l-4.2,23.3H9.23c-3.5,0-6-.8-7.3-2.5-1.3-1.6-1.7-4.3-1.1-7.8l2.3-13.2H13.83m.6-.5H2.73L.33,87.64c-.7,3.7-.3,6.5,1.2,8.2,1.4,1.7,4,2.6,7.7,2.6h24.6l4.4-24.3H20.53l-1.2,6.9h7.4l-1.7,9.5H14.43c-.9,0-1.5-.3-1.9-.8s-.6-1.2-.4-2.1l2.3-13.6h0Z"/></g><g class="cls-2"><path class="cls-7" d="M336.23,74.54c-.5,3-1.5,5.4-2.8,7-1.3,1.7-3,2.8-5.3,3.3l-.6,.1,.2,.5,4.9,12.4h-10.1l-4.5-12.1-.1-.3h-7.3l-.1,.4-2,12.1h-10.7l4.1-23.4h10.7l-.6,3.3-.1,.6h10.6c2.5,0,4.1-1.3,4.5-3.8h0l9.2-.1m.6-.5h-10.3l-.1,.5c-.4,2.3-1.8,3.4-4,3.4h-10l.7-3.9h-11.7l-4.2,24.4h11.7l2.1-12.6h6.6l4.6,12.6h11.1l-5.1-13.1c2.4-.6,4.2-1.7,5.6-3.5s2.3-4.2,2.9-7.4l.1-.4h0Z"/><path class="cls-7" d="M361.33,74.54l-4.1,23.4h-9.3l4.1-23.4h9.3m.6-.5h-10.3l-4.3,24.4h10.3l4.3-24.4h0Z"/><path class="cls-7" d="M290.93,74.54l2.9,23.4h-10.1l-.6-7.2v-.5h-15.7l-.1,.3-4.1,7.5h-10l13.8-23.5h8.8l-4.8,8.7-.4,.7h11.6v-.5l-.6-8.9h9.3m.4-.5h-10.3l.6,9.5h-10.2l5.2-9.5h-9.9l-14.5,24.4h11.1l4.2-7.7h15l.6,7.7h11.1l-2.9-24.4h0Z"/><path class="cls-7" d="M402.43,74.54c2.1,0,4,.9,5.2,2.3,1.3,1.6,1.7,4.3,1.1,7.8l-.5,2.9c-.6,3.6-2,6.3-3.9,7.9-2,1.7-4.8,2.5-8.4,2.5h-22.9l1.2-7h19.3c1,0,1.9-.3,2.5-.9,.7-.6,1.1-1.4,1.3-2.4l.9-5.1,.1-.6h-12.3c-3.8,0-6.5-.9-7.9-2.5-.9-1.1-1.4-2.8-1.4-4.9h25.7m0-.5h-26c-.1,2.5,.4,4.4,1.5,5.7,1.5,1.8,4.2,2.7,8.2,2.7h11.7l-.9,5.1c-.1,.9-.5,1.6-1.1,2.1s-1.4,.8-2.2,.8h-19.8l-1.4,8h23.5c3.7,0,6.6-.9,8.7-2.6s3.4-4.5,4.1-8.2l.5-2.9c.7-3.7,.3-6.5-1.2-8.2-1.2-1.4-3.2-2.5-5.6-2.5h0Z"/><path class="cls-7" d="M260.83,74.54l-.1,.4c-.7,3.9-2,6.7-4.1,8.4-2,1.7-5,2.6-8.9,2.6h-12.7l-.1,.4-1.9,11.6h-10.7l4.1-23.4h10.7l-.7,3.9-.1,.6h10.6c2.5,0,4.1-1.3,4.5-3.8l.1-.6,9.3-.1m.6-.5h-10.3l-.2,1c-.4,2.3-1.8,3.4-4,3.4h-10l.8-4.5h-11.7l-4.2,24.4h11.7l2-12h12.3c4,0,7.1-.9,9.2-2.7,2.1-1.8,3.5-4.7,4.2-8.7l.2-.9h0Z"/></g><g><path class="cls-7" d="M314.53,65.94h10c2.3,0,3.2,1.1,2.8,3.4l-.5,2.8h10.3l.5-2.8c.7-4,.3-6.9-1.2-8.7s-4.2-2.7-8.2-2.7h-24l-2.5,14.2h11.7l1.1-6.2h0Z"/><polygon class="cls-7" points="363.33 65.94 375.33 65.94 376.83 57.94 342.53 57.94 341.13 65.94 353.13 65.94 352.03 72.14 362.23 72.14 363.33 65.94"/><polygon class="cls-7" points="280.53 66.94 280.93 72.14 291.13 72.14 289.33 57.94 276.23 57.94 267.83 72.14 277.63 72.14 280.53 66.94"/><path class="cls-7" d="M239.13,65.94h10c2.3,0,3.2,1.1,2.8,3.4l-.5,2.8h10.3l.5-2.8c.7-4,.3-6.9-1.2-8.7s-4.2-2.7-8.2-2.7h-24l-2.5,14.2h11.7l1.1-6.2h0Z"/><path class="cls-7" d="M390.53,57.94c-4,0-7.1,.9-9.2,2.7s-3.6,4.7-4.3,8.7l-.3,1.7c-.1,.4-.1,.7-.2,1.1h11.7l.3-1.7,.2-1.1c.4-2.3,1.8-3.4,4-3.4h16.3l1.4-8h-19.9Z"/></g><g class="cls-2"><path class="cls-7" d="M328.23,58.44c3.8,0,6.5,.9,7.9,2.5,1.4,1.7,1.7,4.5,1.1,8.3l-.4,2.4h-9.3l.4-2.2c.2-1.3,0-2.3-.5-3-.6-.7-1.5-1-2.8-1h-10.4l-.2,.4-1,5.8h-10.7l2.3-13.2h23.6m0-.5h-24l-2.5,14.2h11.7l1.1-6.2h10c2.3,0,3.2,1.1,2.8,3.4l-.5,2.8h10.3l.5-2.8c.7-4,.3-6.9-1.2-8.7s-4.2-2.7-8.2-2.7h0Z"/><path class="cls-7" d="M376.23,58.44l-1.2,7h-12l-.1,.4-1,5.8h-9.3l1-5.7,.1-.6h-12l1.2-7,33.3,.1m.6-.5h-34.3l-1.4,8h12l-1.1,6.2h10.3l1.1-6.2h12l1.4-8h0Z"/><path class="cls-7" d="M288.93,58.44l1.6,13.2h-9.1l-.4-4.8-.1-1.7-.8,1.5-2.7,5h-8.7l7.8-13.2h12.4m.4-.5h-13.1l-8.4,14.2h9.9l2.9-5.2,.4,5.2h10l-1.7-14.2h0Z"/><path class="cls-7" d="M252.83,58.44c3.8,0,6.5,.9,7.9,2.5,1.4,1.7,1.8,4.5,1.1,8.3l-.4,2.4h-9.4l.4-2.2c.2-1.3,.1-2.3-.5-3s-1.5-1-2.8-1h-10.4l-.1,.4-1,5.8h-10.7l2.3-13.2h23.6m0-.5h-24l-2.5,14.2h11.7l1.1-6.2h10c2.3,0,3.2,1.1,2.8,3.4l-.5,2.8h10.3l.5-2.8c.7-4,.3-6.9-1.2-8.7s-4.2-2.7-8.2-2.7h0Z"/><path class="cls-7" d="M409.93,58.44l-1.2,7h-15.9c-2.5,0-4.1,1.3-4.5,3.8l-.2,1.1-.2,1.2h-10.7c0-.2,0-.3,.1-.5l.3-1.7c.7-3.9,2-6.7,4.1-8.4s5-2.6,8.9-2.6l19.3,.1m.6-.5h-20c-4,0-7.1,.9-9.2,2.7s-3.6,4.7-4.3,8.7l-.3,1.7c-.1,.4-.1,.7-.2,1.1h11.7l.3-1.7,.2-1.1c.4-2.3,1.8-3.4,4-3.4h16.3l1.5-8h0Z"/></g><path class="cls-7" d="M327.43,122.34c.2-1.3,1.5-2.3,2.7-2.3s2.1,1,1.9,2.3c-.2,1.3-1.4,2.3-2.7,2.3s-2.1-1.1-1.9-2.3h0Z"/><path class="cls-7" d="M377.23,107.84h3.1l-.5,2.5h.1c1.1-1.8,3.4-3,5.5-3,.5,0,1,.1,1.4,.2l-.7,3.4c-.5-.1-1-.2-1.5-.2-3.1,0-5.1,1.7-5.7,5.3l-1.4,8.3h-3.1l2.8-16.5h0Z"/><path class="cls-7" d="M396.93,107.44c4.9,0,8.1,3.9,7.3,8.7-.8,4.8-5.4,8.7-10.3,8.7s-8.1-3.9-7.3-8.7c.8-4.8,5.3-8.7,10.3-8.7Zm-2.6,14.5c3.4,0,5.9-2.4,6.5-5.8,.6-3.4-1.1-5.8-4.4-5.8s-5.9,2.4-6.5,5.8c-.6,3.3,1.1,5.8,4.4,5.8h0Z"/><path class="cls-7" d="M346.03,107.44c-1.6,0-3.4,.4-5.1,1.2l-.5,2.5s2.3-1.2,5.1-1.2,3.6,1.8,3.3,3.5l-.1,.7h-2.3c-5,0-9.4,1.5-10.1,5.7-.6,3.2,1.8,5,4.9,5,2.5,0,4.6-.8,6.3-2.9h.1c-.1,.8-.3,1.7-.3,2.5h2.8c.1-.9,.2-1.8,.4-3l1.5-8.5c.4-2.9-1.2-5.5-6-5.5h0Zm2.2,10.1c-.4,2.2-2.1,4.8-5.6,4.8-2.2,0-3.4-.8-3.1-2.7,.5-2.7,4.2-3.2,7.2-3.2h1.7l-.2,1.1h0Z"/><path class="cls-7" d="M368.03,120.44s-2.4,1.6-5,1.6c-2.9,0-5.2-1.9-4.7-4.8h13.3l.2-1.1c.7-4.3-.7-8.8-6.5-8.8-5,0-9.2,3.7-10.1,8.7-.9,4.9,1.8,8.7,7,8.7,2,0,3.8-.4,5.3-1.3l.5-3h0Zm-3.4-10.5c3.2,0,4.4,2.1,4,4.8h-9.9c.4-2.2,2.8-4.8,5.9-4.8Z"/><path class="cls-7" d="M472.03,88.84h-15.5s-28.8-27.3-30.5-28.9c-1.6-1.6-3-2-4.6-2h-6.6l17.9,40.4-24.2,26.1h5.6c2.8,0,4.9-1.1,7.9-3,2.1-1.3,32.4-19.7,32.4-19.7h16.4c9.8,0,14.1-5.1,14.3-6.5,.3-1.3-3.4-6.4-13.1-6.4Z"/><path class="cls-5" d="M432.73,98.34l-24.2,26.1h5.6c2.8,0,4.9-1.1,7.9-3,2.1-1.3,32.4-19.7,32.4-19.7h16.4c9.8,0,14.1-5.1,14.3-6.5-3.6,2.8-11.1,3-15.3,3l-37.1,.1h0Z"/><path class="cls-3" d="M429.43,102.74l-19.5,21.1h4.5c2.2,0,4-.9,6.4-2.4,1.7-1,26.2-15.9,26.2-15.9l4.2-2.8h-21.8Z"/><path class="cls-3" d="M472.33,89.34h-22.8l.5,11.9h21.3c9,0,12.9-4.7,13.2-6,.1-1.2-3.2-5.9-12.2-5.9h0Z"/><path class="cls-5" d="M434.23,93.34h11.4s-21.7-29.7-24.1-32.9c-1.2-1.6-2.3-2.5-3.9-2.5h-2.8l13.8,31.2c1.7,3.7,3.8,4.2,5.6,4.2Z"/><path class="cls-3" d="M465.03,85.04h-13.4s-24.9-23.6-26.3-24.9c-1.4-1.4-2.6-1.8-4-1.8h-5.7l15.4,34.8-20.8,22.5h4.9c2.4,0,4.2-1,6.8-2.5,1.8-1.1,27.9-17,27.9-17h14.1c8.4,0,12.1-4.4,12.4-5.6,.3-1.1-2.8-5.5-11.3-5.5h0Z"/><g class="cls-9"><path class="cls-7" d="M230.43,59.24l-1.9,11.1,4.6-3.5,1-5.7h17.7c2.5,0,3.6-1.9,3.6-1.9h-25Z"/><path class="cls-7" d="M305.83,59.24l-1.9,11.1,4.6-3.5,1-5.7h17.7c2.5,0,3.6-1.9,3.6-1.9h-25Z"/><polygon class="cls-7" points="375.03 59.14 343.83 59.14 343.83 59.14 342.93 64.44 347.33 61.04 372.43 61.04 375.03 59.14"/><path class="cls-7" d="M391.03,59.24c-7.2,0-10.3,4.1-11.2,8.1l-.7,3.3h0l4.6-3.4c1-3.8,4.4-6,7.1-6h13.6c2.5,0,3.6-1.9,3.6-1.9l-17-.1h0Z"/><polygon class="cls-7" points="287.23 59.24 277.23 59.24 270.63 70.54 276.63 65.94 279.53 61.14 284.63 61.14 287.23 59.24"/><polygon class="cls-7" points="358.03 65.94 354.63 65.94 353.83 70.74 357.73 67.84 358.03 65.94"/></g><path class="cls-5" d="M430.63,66.24c-3.5-3.9-7.3-7-11.8-7h-1.7l6,12.6c8.7,2.1,17.1,5.9,24,11.1-7.9-8.4-15.1-15.2-16.5-16.7h0Z"/><path class="cls-3" d="M430.63,66.24c-3.5-3.9-7.3-7-11.8-7h-1.7l6,12.6c8.7,2.1,17.1,5.9,24,11.1-7.9-8.4-15.1-15.2-16.5-16.7h0Z"/><path class="cls-5" d="M476.83,95.34c6.3,0,6.2-1,6.2-1,0,0-2.6-4.5-10.7-4.5h-14c5.9,.6,11.3,2.5,16.1,5.5h2.4Z"/><path class="cls-4" d="M476.83,95.34c6.3,0,6.2-1,6.2-1,0,0-2.6-4.5-10.7-4.5h-14c5.9,.6,11.3,2.5,16.1,5.5h2.4Z"/><path class="cls-5" d="M411.93,122.84l21.5-23.4h4s-18.1,17-24.4,22.9c-.2,.3-.6,.5-1.1,.5h0Z"/><path class="cls-6" d="M472.03,88.84h-15.5s-28.8-27.3-30.5-28.9c-1.6-1.6-3-2-4.6-2h-6.6l17.9,40.4-24.2,26.1h5.6c2.8,0,4.9-1.1,7.9-3,2.1-1.3,32.4-19.7,32.4-19.7h16.4c9.8,0,14.1-5.1,14.3-6.5,.3-1.3-3.4-6.4-13.1-6.4Z"/><g class="cls-8"><path class="cls-7" d="M378.73,75.34s.5,1.9,2.8,1.9h17.8c2.5,0,3.6-1.9,3.6-1.9h-24.2Z"/><path class="cls-7" d="M375.53,91.64h0l-1,5.2,4.4-3.3h11.3c2.5,0,3.6-1.9,3.6-1.9h-18.3Z"/><polygon class="cls-7" points="227.83 75.34 227.83 75.34 224.03 96.84 228.73 93.34 231.13 79.04 236.03 75.34 236.03 75.34 227.83 75.34"/><polygon class="cls-7" points="303.13 75.34 299.43 96.84 304.03 93.34 306.53 79.04 311.43 75.34 303.13 75.34"/><polygon class="cls-7" points="352.93 75.34 349.13 96.84 353.03 93.94 355.73 78.84 360.43 75.34 352.93 75.34"/><polygon class="cls-7" points="268.33 75.44 267.73 75.44 255.13 96.94 261.23 92.34 268.73 79.54 274.13 75.44 268.33 75.44"/></g><g class="cls-8"><path class="cls-7" d="M21.63,77.34h12.1l2.6-1.9h-14.3l-.4,1.9h0Z"/><path class="cls-7" d="M7.13,79.64l5.7-4.3H4.13l-2.2,12.7c-.8,5.3,.5,7.9,5.6,9.3,0,0-3-1.5-2.6-4.4,.4-2.3,2.2-13.3,2.2-13.3Z"/><path class="cls-7" d="M78.33,79.34l5.2-4h-8.3l-2.2,12.7c-.8,5.3,.5,7.8,5.6,9.3,0,0-3-1.5-2.6-4.4,.4-2.4,2.3-13.6,2.3-13.6h0Z"/><path class="cls-7" d="M116.43,75.34l-3.7,21.5,4.6-3.5,2.8-16.1h15.4c2.5,0,3.6-1.9,3.6-1.9h-22.7Z"/><polygon class="cls-7" points="43.83 75.34 40.13 96.84 44.73 93.34 47.23 79.34 52.43 75.34 43.83 75.34"/><polygon class="cls-7" points="195.93 75.34 192.13 96.84 196.83 93.34 199.23 79.34 204.43 75.34 195.93 75.34"/><polygon class="cls-7" points="160.53 75.44 147.93 96.94 154.03 92.34 161.53 79.54 166.93 75.44 160.53 75.44"/></g><g class="cls-2"><path class="cls-7" d="M421.33,58.44c1.4,0,2.6,.3,4.3,1.9,1.6,1.5,30.5,28.9,30.5,28.9l.1,.1h15.7c7.8,0,11.1,3.3,11.9,4.3,.7,.8,.9,1.4,.8,1.7-.2,1.2-4.5,6.1-13.9,6.1h-16.5l-.1,.1s-30.3,18.4-32.4,19.7c-2.8,1.7-5,2.9-7.6,2.9h-4.5l23.4-25.5,.2-.2-.1-.3-17.6-39.7h5.8m0-.5h-6.6l18,40.4-24.2,26.1h5.6c2.8,0,4.9-1.1,7.9-3,2.1-1.3,32.4-19.7,32.4-19.7h16.4c9.8,0,14.1-5.1,14.3-6.5,.3-1.4-3.4-6.5-13.2-6.5h-15.5s-28.8-27.3-30.5-28.9c-1.6-1.5-2.9-1.9-4.6-1.9h0Z"/></g><g class="cls-1"><polygon class="cls-7" points="207.23 59.24 198.73 59.24 196.83 70.34 201.43 66.84 202.43 61.14 204.73 61.14 207.23 59.24"/><path class="cls-7" d="M118.73,59.24l-1.9,11.1,4.6-3.5,1-5.7h16.2c2.5,0,3.6-1.9,3.6-1.9h-23.5Z"/><path class="cls-7" d="M88.13,59.24c-7.1,0-10.3,4.1-11.2,8.2l-.7,3.3h0l4.6-3.4c1-3.8,4.4-6,7.1-6h13.6c2.5,0,3.7-1.9,3.7-1.9l-17.1-.2h0Z"/><polygon class="cls-7" points="180.03 59.24 170.03 59.24 163.43 70.54 169.43 65.94 172.23 61.14 177.43 61.14 180.03 59.24"/><path class="cls-7" d="M17.03,59.24c-7.2,0-10.4,4.1-11.2,8.1l-.7,3.3,4.6-3.4c1-3.8,4.4-6,7.1-6h19.7l2.5-2H17.03Z"/><polygon class="cls-7" points="55.23 59.24 46.73 59.24 44.83 70.34 49.43 66.84 50.43 61.14 52.73 61.14 55.23 59.24"/></g></g><g><path class="cls-7" d="M26.55,0l-.38,1.72H13.88l-1.89,9.03h11.02l-.34,1.62H11.64l-2.48,11.68h-1.76L12.5,0h14.05Z"/><path class="cls-7" d="M39.99,12.4c0,.92-.15,2.08-.45,3.48-1.19,5.65-3.9,8.47-8.13,8.47-1.56,0-2.77-.44-3.63-1.33s-1.29-2.12-1.29-3.7c0-.94,.15-2.09,.45-3.44,1.22-5.67,3.91-8.51,8.09-8.51,1.58,0,2.81,.44,3.67,1.33,.86,.88,1.29,2.12,1.29,3.7Zm-1.72,.34c0-2.48-1.19-3.72-3.58-3.72-3.08,0-5.11,2.29-6.1,6.85-.28,1.24-.41,2.27-.41,3.1,0,2.48,1.21,3.72,3.62,3.72,3.1,0,5.13-2.27,6.1-6.82,.25-1.29,.38-2.33,.38-3.14Z"/><path class="cls-7" d="M54.66,7.79l-.38,1.79c-.39-.34-.87-.52-1.45-.52-2.2,0-4.24,2.01-6.1,6.03-1.31,2.87-2.25,5.86-2.82,8.96h-1.69l3.51-16.47h1.69l-1.38,6.54c2-4.48,4.26-6.72,6.79-6.72,.69,0,1.3,.13,1.83,.38Z"/><path class="cls-7" d="M79.94,11.26c0,.78-.12,1.69-.34,2.72l-2.14,10.06h-1.69l2.2-10.4c.21-.94,.31-1.73,.31-2.38,0-1.47-.64-2.2-1.93-2.2-1.08,0-2.17,.57-3.27,1.72-2,2.07-3.54,5.1-4.62,9.09,0,.05-.3,1.43-.9,4.17h-1.69l2.2-10.4c.21-.94,.31-1.73,.31-2.38,0-1.47-.64-2.2-1.93-2.2-1.08,0-2.17,.57-3.27,1.72-1.56,1.61-2.81,3.67-3.75,6.2-.67,1.77-1.3,4.12-1.89,7.06h-1.69l3.51-16.47h1.69l-1.31,6.27c.62-1.4,1.49-2.78,2.62-4.13,1.31-1.54,2.67-2.31,4.1-2.31,2.39,0,3.58,1.29,3.58,3.86,0,.64-.08,1.39-.24,2.24,1.97-4.06,4.16-6.1,6.54-6.1s3.58,1.29,3.58,3.86Z"/><path class="cls-7" d="M96.06,10.85c0,1.81-1.47,3.2-4.41,4.17-2.04,.67-4.27,1.03-6.68,1.1-.18,.9-.28,1.71-.28,2.45,0,2.73,1.17,4.1,3.51,4.1,1.38,0,2.76-.68,4.13-2.03l1.17,1.21c-1.7,1.65-3.47,2.48-5.3,2.48-1.7,0-3.01-.54-3.93-1.62-.83-1.03-1.24-2.41-1.24-4.13,0-2.76,.7-5.22,2.1-7.41,1.61-2.5,3.71-3.75,6.3-3.75,1.17,0,2.19,.28,3.07,.83,1.03,.62,1.55,1.49,1.55,2.62Zm-1.65,.07c0-1.24-.99-1.86-2.96-1.86-1.56,0-2.91,.62-4.03,1.86-.96,1.03-1.68,2.38-2.14,4.03,1.79-.09,3.58-.41,5.37-.96,2.5-.78,3.75-1.8,3.75-3.07Z"/><path class="cls-7" d="M110.05,7.79l-.38,1.79c-.39-.34-.87-.52-1.45-.52-2.2,0-4.24,2.01-6.1,6.03-1.31,2.87-2.25,5.86-2.82,8.96h-1.69l3.51-16.47h1.69l-1.38,6.54c2-4.48,4.26-6.72,6.79-6.72,.69,0,1.3,.13,1.83,.38Z"/><path class="cls-7" d="M117.56,0l-4.31,20.19c-.09,.41-.14,.75-.14,1,0,.8,.44,1.21,1.31,1.21l-.34,1.65c-1.77,0-2.65-.84-2.65-2.51,0-.37,.06-.81,.17-1.34L115.9,0h1.65Z"/><path class="cls-7" d="M134.05,7.58l-12.09,20.67c-1.33,2.27-3.1,3.4-5.3,3.38h-.65l.38-1.65h.65c1.15,0,2.16-.57,3.03-1.72,.64-1.06,1.27-2.12,1.89-3.2,.53-.87,.79-1.67,.79-2.38,0-.41-.06-.93-.17-1.55l-2.17-13.54h1.76l2.17,13.4,7.85-13.4h1.86Z"/></g></g></svg>